<svg width="112" height="112" viewBox="0 0 112 112" fill="none" xmlns="http://www.w3.org/2000/svg">
<g clip-path="url(#clip0)">
<path d="M105.201 111.999H32.0619C29.9347 111.999 28.2106 110.275 28.2106 108.148V3.85129C28.2106 1.72418 29.9347 0 32.0619 0H105.201C107.328 0 109.052 1.72418 109.052 3.85129V108.148C109.052 110.275 107.328 111.999 105.201 111.999Z" fill="#D1E7F8"/>
<path d="M101.85 108.148V3.85129C101.85 1.72418 100.126 0 97.999 0H32.0616C29.9345 0 28.2103 1.72418 28.2103 3.85129V108.148C28.2103 110.275 29.9345 111.999 32.0616 111.999H97.9988C100.126 111.999 101.85 110.275 101.85 108.148Z" fill="#B9D8F4"/>
<path d="M105.201 102.198H85.9545V10.1692H105.201C107.328 10.1692 109.052 11.8933 109.052 14.0204V98.3476C109.052 100.474 107.328 102.198 105.201 102.198Z" fill="#FFE477"/>
<path d="M101.85 102.198V10.1696C101.845 10.1696 101.839 10.1692 101.834 10.1692H85.9542V102.199H101.834C101.84 102.198 101.845 102.198 101.85 102.198Z" fill="#F49C00"/>
<path d="M109.052 40.8456V14.0204C109.052 11.8933 107.328 10.1692 105.201 10.1692H85.9545V40.8456H109.052Z" fill="#FF0C38"/>
<path d="M101.85 10.1696C101.845 10.1696 101.839 10.1692 101.834 10.1692H85.9542V40.8456H101.85V10.1696Z" fill="#B11F24"/>
<path d="M109.052 71.5222V98.3476C109.052 100.475 107.328 102.199 105.201 102.199H85.9545V71.5222H109.052Z" fill="#713C38"/>
<path d="M101.85 71.5227C101.845 71.5227 101.839 71.5222 101.834 71.5222H85.9542V102.199H101.85V71.5227Z" fill="#45130F"/>
<path d="M90.765 111.999H17.6257C15.4986 111.999 13.7744 110.275 13.7744 108.148V3.85129C13.7744 1.7244 15.4986 0 17.6257 0H90.7647C92.8919 0 94.616 1.72418 94.616 3.85129V108.148C94.616 110.275 92.8919 111.999 90.765 111.999Z" fill="#57A4FF"/>
<path d="M41.4785 104.781V7.21805C41.4785 3.23201 44.7096 0.000656246 48.6954 0H17.6253C15.4986 0 13.7744 1.72396 13.7744 3.85085V108.149C13.7744 110.276 15.4984 112 17.6253 112H48.6965C44.7103 111.999 41.4785 108.768 41.4785 104.781Z" fill="#2488FF"/>
<path d="M72.7859 49.8042H35.6045C33.1154 49.8042 31.0974 47.7865 31.0974 45.2971V27.6045C31.0974 25.1154 33.1152 23.0974 35.6045 23.0974H72.7859C75.275 23.0974 77.293 25.1152 77.293 27.6045V45.2971C77.2928 47.7863 75.2748 49.8042 72.7859 49.8042Z" fill="#DDFFFB"/>
<path d="M35.6045 23.0974C33.1154 23.0974 31.0974 25.1152 31.0974 27.6045V45.2971C31.0974 47.7863 33.1152 49.8042 35.6045 49.8042H41.4783V23.0974H35.6045Z" fill="#AAFFF5"/>
<path d="M20.2705 24.0599H7.27817C4.89622 24.0599 2.94739 22.1111 2.94739 19.7291C2.94739 17.3472 4.89622 15.3983 7.27817 15.3983H20.2705C22.6525 15.3983 24.6013 17.3472 24.6013 19.7291C24.6013 22.1111 22.6525 24.0599 20.2705 24.0599Z" fill="#E0E0E2"/>
<path d="M10.9092 19.7291C10.9092 17.3472 12.858 15.3983 15.24 15.3983H7.27817C4.89622 15.3983 2.94739 17.3472 2.94739 19.7291C2.94739 22.1111 4.89622 24.0599 7.27817 24.0599H15.2397C12.858 24.0599 10.9092 22.1111 10.9092 19.7291Z" fill="#C6C5CA"/>
<path d="M20.2705 48.2404H7.27817C4.89622 48.2404 2.94739 46.2916 2.94739 43.9096C2.94739 41.5277 4.89622 39.5789 7.27817 39.5789H20.2705C22.6525 39.5789 24.6013 41.5277 24.6013 43.9096C24.6013 46.2916 22.6525 48.2404 20.2705 48.2404Z" fill="#E0E0E2"/>
<path d="M20.2705 72.4205H7.27817C4.89622 72.4205 2.94739 70.4717 2.94739 68.0897C2.94739 65.7077 4.89622 63.7589 7.27817 63.7589H20.2705C22.6525 63.7589 24.6013 65.7077 24.6013 68.0897C24.6013 70.4717 22.6525 72.4205 20.2705 72.4205Z" fill="#E0E0E2"/>
<path d="M20.2705 96.6009H7.27817C4.89622 96.6009 2.94739 94.6521 2.94739 92.2701C2.94739 89.8882 4.89622 87.9394 7.27817 87.9394H20.2705C22.6525 87.9394 24.6013 89.8882 24.6013 92.2701C24.6013 94.6521 22.6525 96.6009 20.2705 96.6009Z" fill="#E0E0E2"/>
<path d="M10.9092 43.9096C10.9092 41.5277 12.858 39.5789 15.24 39.5789H7.27817C4.89622 39.5789 2.94739 41.5277 2.94739 43.9096C2.94739 46.2916 4.89622 48.2404 7.27817 48.2404H15.2397C12.858 48.2404 10.9092 46.2916 10.9092 43.9096Z" fill="#C6C5CA"/>
<path d="M10.9092 68.0897C10.9092 65.7077 12.858 63.7589 15.24 63.7589H7.27817C4.89622 63.7589 2.94739 65.7077 2.94739 68.0897C2.94739 70.4717 4.89622 72.4205 7.27817 72.4205H15.2397C12.858 72.4205 10.9092 70.4717 10.9092 68.0897Z" fill="#C6C5CA"/>
<path d="M10.9092 92.2701C10.9092 89.8882 12.858 87.9394 15.24 87.9394H7.27817C4.89622 87.9394 2.94739 89.8882 2.94739 92.2701C2.94739 94.6521 4.89622 96.6009 7.27817 96.6009H15.2397C12.858 96.6009 10.9092 94.6521 10.9092 92.2701Z" fill="#C6C5CA"/>
</g>
<defs>
<clipPath id="clip0">
<rect width="112" height="112" fill="white"/>
</clipPath>
</defs>
</svg>
