<svg width="293" height="53" viewBox="0 0 293 53" fill="none" xmlns="http://www.w3.org/2000/svg">
<path d="M2.004 38.132C1.24133 38.132 0.617333 38.028 0.132 37.82C0.132 31.996 0.634667 23.6933 1.64 12.912L2.108 7.556C1.62267 6.96667 1.15467 6.06533 0.704 4.852C0.288 3.63867 0.0800001 2.78933 0.0800001 2.304L0.132 2.148C0.236 2.00933 1.10267 1.888 2.732 1.784C4.36133 1.68 6.14667 1.628 8.088 1.628C10.064 1.628 11.1387 1.71467 11.312 1.888C11.4853 2.06133 12.3173 4.24533 13.808 8.44C15.2987 12.6 16.408 15.824 17.136 18.112C17.2053 18.2853 17.292 18.372 17.396 18.372C17.5 18.372 17.6733 18.008 17.916 17.28C18.1587 16.5173 19.164 13.9173 20.932 9.48C22.7 5.008 23.8787 2.47733 24.468 1.888C24.78 1.576 26.4613 1.42 29.512 1.42C32.5627 1.42 34.088 1.50667 34.088 1.68C34.088 2.26933 33.8453 3.292 33.36 4.748C32.9093 6.204 32.528 7.22667 32.216 7.816C33.4293 18.8053 34.036 28.5293 34.036 36.988C34.036 37.3347 33.3253 37.6467 31.904 37.924C30.5173 38.236 29.3733 38.392 28.472 38.392C27.5707 38.392 27.12 38.3227 27.12 38.184C27.224 36.7627 27.276 34.4747 27.276 31.32C27.276 28.1307 27.1893 24.352 27.016 19.984C26.8427 14.5413 26.6347 11.82 26.392 11.82L26.08 12.132C25.3867 13.4147 24.4853 15.5813 23.376 18.632C22.3013 21.6827 21.4 24.4213 20.672 26.848L19.58 30.436C19.4067 30.8173 18.8867 31.008 18.02 31.008C17.188 31.008 16.4947 30.956 15.94 30.852C15.42 30.748 15.1427 30.644 15.108 30.54C15.004 30.1587 13.9293 27.1253 11.884 21.44C9.83867 15.72 8.66 12.6693 8.348 12.288C8.244 12.08 8.15733 11.976 8.088 11.976C8.01867 11.976 7.96667 12.0973 7.932 12.34C7.308 15.4947 6.996 20.14 6.996 26.276C6.996 32.3773 7.08267 35.9133 7.256 36.884C6.38933 37.716 4.63867 38.132 2.004 38.132ZM57.1508 21.492L57.2028 35.324C57.2028 38.028 56.8388 40.4373 56.1108 42.552C55.4175 44.6667 54.5508 46.296 53.5108 47.44C52.5055 48.584 51.3441 49.52 50.0268 50.248C47.8775 51.4613 45.6935 52.068 43.4748 52.068C43.3708 52.068 43.1628 51.808 42.8508 51.288C42.5388 50.768 42.2441 50.0573 41.9668 49.156C41.6895 48.2893 41.5508 47.4747 41.5508 46.712C42.8681 46.712 44.1855 46.452 45.5028 45.932C46.8201 45.4467 47.7388 44.9093 48.2588 44.32C48.7788 43.7653 49.2988 43.0547 49.8188 42.188C50.8935 40.4893 51.4308 37.7333 51.4308 33.92L51.3788 32.412C51.3788 32.204 51.3441 32.1 51.2748 32.1C51.2055 32.1 51.1361 32.152 51.0668 32.256C50.9975 32.36 50.9108 32.4987 50.8068 32.672C50.7028 32.8107 50.4428 33.088 50.0268 33.504C49.6455 33.8853 49.2295 34.232 48.7788 34.544C47.5655 35.376 46.3348 35.792 45.0868 35.792C43.8735 35.792 42.9028 35.636 42.1748 35.324C41.4815 35.012 40.8921 34.6133 40.4068 34.128C39.9561 33.6427 39.5748 32.9667 39.2628 32.1C38.9508 31.1987 38.7081 30.3667 38.5348 29.604C38.3615 28.8413 38.2401 27.8013 38.1708 26.484C38.0321 24.6467 37.9628 22.74 37.9628 20.764C37.9628 18.0253 38.1015 15.7893 38.3788 14.056L38.5348 13.328C38.5348 13.0853 39.0548 12.8427 40.0948 12.6C41.1695 12.3573 42.0535 12.236 42.7468 12.236L44.4108 12.496C44.0295 15.928 43.8388 18.8227 43.8388 21.18C43.8388 23.5373 44.0815 25.496 44.5668 27.056C45.0521 28.616 45.8668 29.396 47.0108 29.396C48.1548 29.396 49.0561 29.0667 49.7148 28.408C50.4081 27.7147 50.8415 27.0387 51.0148 26.38L51.2748 25.392C51.2055 23.208 51.1708 20.868 51.1708 18.372C51.1708 15.8413 51.2575 14.4893 51.4308 14.316C51.8815 13.8653 52.6615 13.5187 53.7708 13.276C54.9148 13.0333 55.8335 12.912 56.5268 12.912C57.2201 12.912 57.5668 12.964 57.5668 13.068C57.2895 14.6973 57.1508 17.5053 57.1508 21.492ZM82.6946 37.56L82.8506 23.26V22.584C81.8799 21.232 80.1466 18.3373 77.6506 13.9C75.1893 9.428 73.8546 7.05333 73.6466 6.776C72.8493 5.97866 71.7573 5.58 70.3706 5.58C70.3359 5.51067 70.3186 5.32 70.3186 5.008C70.3186 4.696 70.4226 4.21067 70.6306 3.552C70.8733 2.85866 71.0293 2.47733 71.0986 2.408C71.2026 2.304 71.5319 2.2 72.0866 2.096C73.5773 1.81867 75.0853 1.68 76.6106 1.68C78.1359 1.68 78.9333 1.71466 79.0026 1.784C79.1066 1.85333 79.5919 2.80667 80.4586 4.644C83.1626 10.3987 85.1559 14.2467 86.4386 16.188H86.5426C86.7506 15.4253 88.2239 12.6693 90.9626 7.92C93.7359 3.17066 95.3479 0.795998 95.7986 0.795998C96.8386 0.795998 97.8786 0.934665 98.9186 1.212C99.9586 1.48933 100.773 1.80133 101.363 2.148C101.952 2.46 102.229 2.72 102.195 2.928C100.357 4.97333 97.9133 8.26667 94.8626 12.808C91.8466 17.3147 90.0613 20.5733 89.5066 22.584C89.4373 23.2773 89.4026 25.5133 89.4026 29.292C89.4026 33.0707 89.5413 35.5493 89.8186 36.728C89.8186 37.144 89.2639 37.456 88.1546 37.664C87.0453 37.872 85.9533 37.976 84.8786 37.976C83.8386 37.976 83.1106 37.8373 82.6946 37.56ZM117.12 19.464C117.12 18.4587 116.582 17.956 115.508 17.956C114.086 17.956 112.838 18.684 111.764 20.14C110.689 21.596 110.152 23.3467 110.152 25.392C110.152 25.8773 110.221 26.12 110.36 26.12C111.608 26.0853 113.046 25.3747 114.676 23.988C116.305 22.5667 117.12 21.0587 117.12 19.464ZM121.644 36C120.465 36.7973 118.16 37.196 114.728 37.196C111.296 37.196 108.661 36.1733 106.824 34.128C104.986 32.0827 104.068 29.3613 104.068 25.964C104.068 22.532 105.16 19.568 107.344 17.072C109.562 14.5413 112.665 13.276 116.652 13.276C118.281 13.276 119.772 13.7093 121.124 14.576C122.51 15.4427 123.204 16.968 123.204 19.152C123.204 21.3013 122.25 23.4333 120.344 25.548C118.472 27.6627 115.906 29.2747 112.648 30.384C112.648 30.8 113.064 31.1467 113.896 31.424C114.762 31.6667 115.612 31.788 116.444 31.788C119.078 31.788 121.158 31.32 122.684 30.384C122.718 30.3493 122.77 30.332 122.84 30.332C122.909 30.332 122.944 30.6613 122.944 31.32C122.944 33.3307 122.51 34.8907 121.644 36ZM145.66 24.404C145.66 28.7373 145.712 31.268 145.816 31.996C146.093 33.9027 146.683 35.272 147.584 36.104C147.584 36.4853 146.891 37.0573 145.504 37.82C144.152 38.5827 142.921 38.964 141.812 38.964C141.5 38.964 141.171 38.496 140.824 37.56C140.477 36.6587 140.269 35.9827 140.2 35.532C140.165 35.0813 140.131 34.856 140.096 34.856L139.94 34.96C138.103 36.416 135.953 37.144 133.492 37.144C131.031 37.144 129.124 36.5547 127.772 35.376C126.455 34.1627 125.796 32.5853 125.796 30.644C125.796 28.7027 126.212 27.0733 127.044 25.756C127.911 24.404 128.916 23.3813 130.06 22.688C131.204 21.9947 132.469 21.44 133.856 21.024C135.971 20.3307 137.635 19.984 138.848 19.984L138.952 19.932C138.952 18.2333 136.803 17.384 132.504 17.384C130.805 17.384 129.54 17.4533 128.708 17.592H128.656C128.656 16.8987 128.864 16.032 129.28 14.992C129.731 13.952 130.095 13.276 130.372 12.964C130.684 12.652 131.932 12.496 134.116 12.496C138.068 12.496 140.98 13.2587 142.852 14.784C144.724 16.2747 145.66 18.5973 145.66 21.752V24.404ZM139.888 27.732V25.756C139.888 24.9933 139.871 24.612 139.836 24.612C137.513 24.612 135.503 25.2187 133.804 26.432C132.729 27.1947 132.192 28.148 132.192 29.292C132.192 30.02 132.452 30.6267 132.972 31.112C133.492 31.5973 134.272 31.84 135.312 31.84C136.387 31.84 137.409 31.528 138.38 30.904C139.385 30.28 139.888 29.2227 139.888 27.732ZM151.067 28.98L150.963 17.176C150.963 15.1307 151.033 14.0387 151.171 13.9C151.553 13.5187 152.211 13.1893 153.147 12.912C154.083 12.6 154.95 12.444 155.747 12.444C156.579 12.444 156.995 12.5307 156.995 12.704C156.891 13.64 156.839 14.7147 156.839 15.928C156.839 17.1067 156.874 17.696 156.943 17.696C157.013 17.696 157.082 17.6613 157.151 17.592C157.221 17.488 157.325 17.3493 157.463 17.176C157.637 16.968 157.966 16.6213 158.451 16.136C158.971 15.6507 159.526 15.2347 160.115 14.888C161.606 13.9173 163.201 13.432 164.899 13.432C165.177 13.8827 165.315 14.576 165.315 15.512C165.315 17.488 165.073 18.892 164.587 19.724L164.379 20.14L163.703 20.036C161.207 20.036 159.249 21.0587 157.827 23.104C157.273 23.936 156.995 24.56 156.995 24.976V29.552C156.995 33.712 156.943 35.844 156.839 35.948C155.869 36.884 153.962 37.352 151.119 37.352C150.842 37.352 150.703 37.3 150.703 37.196C150.946 35.844 151.067 33.1053 151.067 28.98Z" fill="#45120F"/>
<path d="M192.842 36.416C192.842 36.416 189.705 36.2947 183.43 36.052C181.454 36.052 179.998 36.0867 179.062 36.156C178.126 36.2253 177.624 36.26 177.554 36.26C177.381 36.1213 177.294 35.22 177.294 33.556C177.294 31.8573 177.433 30.8173 177.71 30.436C180.449 27.8707 183.188 25.0627 185.926 22.012C191.265 16.084 193.934 12.028 193.934 9.844C193.934 7.66 192.305 6.568 189.046 6.568C186.412 6.568 184.609 7.504 183.638 9.376C182.945 10.6587 182.46 12.0627 182.182 13.588C182.113 13.6573 181.836 13.692 181.35 13.692C180.9 13.692 180.241 13.6053 179.374 13.432C178.542 13.2587 178.057 13.1027 177.918 12.964C177.78 12.8253 177.71 12.1667 177.71 10.988C177.71 9.77466 177.78 8.21466 177.918 6.308C178.057 4.36666 178.196 3.344 178.334 3.24C178.473 3.10133 179.062 2.89333 180.102 2.616C183.014 1.81867 186.204 1.42 189.67 1.42C193.172 1.42 195.962 2.148 198.042 3.604C200.157 5.02533 201.214 6.86267 201.214 9.116C201.214 11.5773 199.585 14.8533 196.326 18.944C193.761 22.168 190.97 25.4093 187.954 28.668L186.498 30.28C186.394 30.5227 187.382 30.644 189.462 30.644C195.148 30.644 199.134 30.28 201.422 29.552C201.526 29.552 201.578 29.5867 201.578 29.656C201.578 30.5573 201.405 31.7187 201.058 33.14C200.746 34.5267 200.382 35.428 199.966 35.844C199.585 36.2253 197.21 36.416 192.842 36.416ZM230.664 7.348C231.843 9.18533 232.744 11.1787 233.368 13.328C233.992 15.4773 234.304 17.8867 234.304 20.556C234.304 23.1907 233.854 25.6693 232.952 27.992C232.051 30.28 230.855 32.0133 229.364 33.192C226.452 35.5147 223.176 36.676 219.536 36.676C214.579 36.676 210.731 34.9253 207.992 31.424C207.022 30.2107 206.224 28.5987 205.6 26.588C205.011 24.5773 204.716 22.2027 204.716 19.464C204.716 16.7253 205.236 13.9867 206.276 11.248C207.316 8.47466 208.998 6.1 211.32 4.124C213.643 2.148 216.382 1.16 219.536 1.16C221.928 1.16 224.095 1.732 226.036 2.876C227.978 4.02 229.52 5.51067 230.664 7.348ZM213.66 28.512C215.047 30.4187 217.006 31.372 219.536 31.372C222.067 31.372 224.008 30.4187 225.36 28.512C226.747 26.6053 227.44 23.728 227.44 19.88C227.44 16.032 226.678 12.86 225.152 10.364C223.662 7.868 221.79 6.62 219.536 6.62C217.283 6.62 215.394 7.868 213.868 10.364C212.378 12.86 211.632 16.032 211.632 19.88C211.632 23.728 212.308 26.6053 213.66 28.512ZM251.393 36.416C251.393 36.416 248.256 36.2947 241.981 36.052C240.005 36.052 238.549 36.0867 237.613 36.156C236.677 36.2253 236.174 36.26 236.105 36.26C235.932 36.1213 235.845 35.22 235.845 33.556C235.845 31.8573 235.984 30.8173 236.261 30.436C239 27.8707 241.738 25.0627 244.477 22.012C249.816 16.084 252.485 12.028 252.485 9.844C252.485 7.66 250.856 6.568 247.597 6.568C244.962 6.568 243.16 7.504 242.189 9.376C241.496 10.6587 241.01 12.0627 240.733 13.588C240.664 13.6573 240.386 13.692 239.901 13.692C239.45 13.692 238.792 13.6053 237.925 13.432C237.093 13.2587 236.608 13.1027 236.469 12.964C236.33 12.8253 236.261 12.1667 236.261 10.988C236.261 9.77466 236.33 8.21466 236.469 6.308C236.608 4.36666 236.746 3.344 236.885 3.24C237.024 3.10133 237.613 2.89333 238.653 2.616C241.565 1.81867 244.754 1.42 248.221 1.42C251.722 1.42 254.513 2.148 256.593 3.604C258.708 5.02533 259.765 6.86267 259.765 9.116C259.765 11.5773 258.136 14.8533 254.877 18.944C252.312 22.168 249.521 25.4093 246.505 28.668L245.049 30.28C244.945 30.5227 245.933 30.644 248.013 30.644C253.698 30.644 257.685 30.28 259.973 29.552C260.077 29.552 260.129 29.5867 260.129 29.656C260.129 30.5573 259.956 31.7187 259.609 33.14C259.297 34.5267 258.933 35.428 258.517 35.844C258.136 36.2253 255.761 36.416 251.393 36.416ZM289.215 7.348C290.394 9.18533 291.295 11.1787 291.919 13.328C292.543 15.4773 292.855 17.8867 292.855 20.556C292.855 23.1907 292.404 25.6693 291.503 27.992C290.602 30.28 289.406 32.0133 287.915 33.192C285.003 35.5147 281.727 36.676 278.087 36.676C273.13 36.676 269.282 34.9253 266.543 31.424C265.572 30.2107 264.775 28.5987 264.151 26.588C263.562 24.5773 263.267 22.2027 263.267 19.464C263.267 16.7253 263.787 13.9867 264.827 11.248C265.867 8.47466 267.548 6.1 269.871 4.124C272.194 2.148 274.932 1.16 278.087 1.16C280.479 1.16 282.646 1.732 284.587 2.876C286.528 4.02 288.071 5.51067 289.215 7.348ZM272.211 28.512C273.598 30.4187 275.556 31.372 278.087 31.372C280.618 31.372 282.559 30.4187 283.911 28.512C285.298 26.6053 285.991 23.728 285.991 19.88C285.991 16.032 285.228 12.86 283.703 10.364C282.212 7.868 280.34 6.62 278.087 6.62C275.834 6.62 273.944 7.868 272.419 10.364C270.928 12.86 270.183 16.032 270.183 19.88C270.183 23.728 270.859 26.6053 272.211 28.512Z" fill="#B11F24"/>
</svg>
