<svg width="492" height="100" viewBox="0 0 492 100" fill="none" xmlns="http://www.w3.org/2000/svg">
<path d="M133.85 66.05C133.117 66.05 132.517 65.95 132.05 65.75C132.05 60.15 132.533 52.1667 133.5 41.8L133.95 36.65C133.483 36.0833 133.033 35.2167 132.6 34.05C132.2 32.8833 132 32.0667 132 31.6L132.05 31.45C132.15 31.3167 132.983 31.2 134.55 31.1C136.117 31 137.833 30.95 139.7 30.95C141.6 30.95 142.633 31.0333 142.8 31.2C142.967 31.3667 143.767 33.4667 145.2 37.5C146.633 41.5 147.7 44.6 148.4 46.8C148.467 46.9667 148.55 47.05 148.65 47.05C148.75 47.05 148.917 46.7 149.15 46C149.383 45.2667 150.35 42.7667 152.05 38.5C153.75 34.2 154.883 31.7667 155.45 31.2C155.75 30.9 157.367 30.75 160.3 30.75C163.233 30.75 164.7 30.8333 164.7 31C164.7 31.5667 164.467 32.55 164 33.95C163.567 35.35 163.2 36.3333 162.9 36.9C164.067 47.4667 164.65 56.8167 164.65 64.95C164.65 65.2833 163.967 65.5833 162.6 65.85C161.267 66.15 160.167 66.3 159.3 66.3C158.433 66.3 158 66.2333 158 66.1C158.1 64.7333 158.15 62.5333 158.15 59.5C158.15 56.4333 158.067 52.8 157.9 48.6C157.733 43.3667 157.533 40.75 157.3 40.75L157 41.05C156.333 42.2833 155.467 44.3667 154.4 47.3C153.367 50.2333 152.5 52.8667 151.8 55.2L150.75 58.65C150.583 59.0167 150.083 59.2 149.25 59.2C148.45 59.2 147.783 59.15 147.25 59.05C146.75 58.95 146.483 58.85 146.45 58.75C146.35 58.3833 145.317 55.4667 143.35 50C141.383 44.5 140.25 41.5667 139.95 41.2C139.85 41 139.767 40.9 139.7 40.9C139.633 40.9 139.583 41.0167 139.55 41.25C138.95 44.2833 138.65 48.75 138.65 54.65C138.65 60.5167 138.733 63.9167 138.9 64.85C138.067 65.65 136.383 66.05 133.85 66.05ZM186.876 50.05L186.926 63.35C186.926 65.95 186.576 68.2667 185.876 70.3C185.209 72.3333 184.376 73.9 183.376 75C182.409 76.1 181.292 77 180.026 77.7C177.959 78.8667 175.859 79.45 173.726 79.45C173.626 79.45 173.426 79.2 173.126 78.7C172.826 78.2 172.542 77.5167 172.276 76.65C172.009 75.8167 171.876 75.0333 171.876 74.3C173.142 74.3 174.409 74.05 175.676 73.55C176.942 73.0833 177.826 72.5667 178.326 72C178.826 71.4667 179.326 70.7833 179.826 69.95C180.859 68.3167 181.376 65.6667 181.376 62L181.326 60.55C181.326 60.35 181.292 60.25 181.226 60.25C181.159 60.25 181.092 60.3 181.026 60.4C180.959 60.5 180.876 60.6333 180.776 60.8C180.676 60.9333 180.426 61.2 180.026 61.6C179.659 61.9667 179.259 62.3 178.826 62.6C177.659 63.4 176.476 63.8 175.276 63.8C174.109 63.8 173.176 63.65 172.476 63.35C171.809 63.05 171.242 62.6667 170.776 62.2C170.342 61.7333 169.976 61.0833 169.676 60.25C169.376 59.3833 169.142 58.5833 168.976 57.85C168.809 57.1167 168.692 56.1167 168.626 54.85C168.492 53.0833 168.426 51.25 168.426 49.35C168.426 46.7167 168.559 44.5667 168.826 42.9L168.976 42.2C168.976 41.9667 169.476 41.7333 170.476 41.5C171.509 41.2667 172.359 41.15 173.026 41.15L174.626 41.4C174.259 44.7 174.076 47.4833 174.076 49.75C174.076 52.0167 174.309 53.9 174.776 55.4C175.242 56.9 176.026 57.65 177.126 57.65C178.226 57.65 179.092 57.3333 179.726 56.7C180.392 56.0333 180.809 55.3833 180.976 54.75L181.226 53.8C181.159 51.7 181.126 49.45 181.126 47.05C181.126 44.6167 181.209 43.3167 181.376 43.15C181.809 42.7167 182.559 42.3833 183.626 42.15C184.726 41.9167 185.609 41.8 186.276 41.8C186.942 41.8 187.276 41.85 187.276 41.95C187.009 43.5167 186.876 46.2167 186.876 50.05ZM215.737 64.4C215.737 64.4 212.72 64.2833 206.687 64.05C204.787 64.05 203.387 64.0833 202.487 64.15C201.587 64.2167 201.104 64.25 201.037 64.25C200.87 64.1167 200.787 63.25 200.787 61.65C200.787 60.0167 200.92 59.0167 201.187 58.65C203.82 56.1833 206.454 53.4833 209.087 50.55C214.22 44.85 216.787 40.95 216.787 38.85C216.787 36.75 215.22 35.7 212.087 35.7C209.554 35.7 207.82 36.6 206.887 38.4C206.22 39.6333 205.754 40.9833 205.487 42.45C205.42 42.5167 205.154 42.55 204.687 42.55C204.254 42.55 203.62 42.4667 202.787 42.3C201.987 42.1333 201.52 41.9833 201.387 41.85C201.254 41.7167 201.187 41.0833 201.187 39.95C201.187 38.7833 201.254 37.2833 201.387 35.45C201.52 33.5833 201.654 32.6 201.787 32.5C201.92 32.3667 202.487 32.1667 203.487 31.9C206.287 31.1333 209.354 30.75 212.687 30.75C216.054 30.75 218.737 31.45 220.737 32.85C222.77 34.2167 223.787 35.9833 223.787 38.15C223.787 40.5167 222.22 43.6667 219.087 47.6C216.62 50.7 213.937 53.8167 211.037 56.95L209.637 58.5C209.537 58.7333 210.487 58.85 212.487 58.85C217.954 58.85 221.787 58.5 223.987 57.8C224.087 57.8 224.137 57.8333 224.137 57.9C224.137 58.7667 223.97 59.8833 223.637 61.25C223.337 62.5833 222.987 63.45 222.587 63.85C222.22 64.2167 219.937 64.4 215.737 64.4ZM252.104 36.45C253.238 38.2167 254.104 40.1333 254.704 42.2C255.304 44.2667 255.604 46.5833 255.604 49.15C255.604 51.6833 255.171 54.0667 254.304 56.3C253.438 58.5 252.288 60.1667 250.854 61.3C248.054 63.5333 244.904 64.65 241.404 64.65C236.638 64.65 232.938 62.9667 230.304 59.6C229.371 58.4333 228.604 56.8833 228.004 54.95C227.438 53.0167 227.154 50.7333 227.154 48.1C227.154 45.4667 227.654 42.8333 228.654 40.2C229.654 37.5333 231.271 35.25 233.504 33.35C235.738 31.45 238.371 30.5 241.404 30.5C243.704 30.5 245.788 31.05 247.654 32.15C249.521 33.25 251.004 34.6833 252.104 36.45ZM235.754 56.8C237.088 58.6333 238.971 59.55 241.404 59.55C243.838 59.55 245.704 58.6333 247.004 56.8C248.338 54.9667 249.004 52.2 249.004 48.5C249.004 44.8 248.271 41.75 246.804 39.35C245.371 36.95 243.571 35.75 241.404 35.75C239.238 35.75 237.421 36.95 235.954 39.35C234.521 41.75 233.804 44.8 233.804 48.5C233.804 52.2 234.454 54.9667 235.754 56.8ZM272.036 64.4C272.036 64.4 269.019 64.2833 262.986 64.05C261.086 64.05 259.686 64.0833 258.786 64.15C257.886 64.2167 257.403 64.25 257.336 64.25C257.169 64.1167 257.086 63.25 257.086 61.65C257.086 60.0167 257.219 59.0167 257.486 58.65C260.119 56.1833 262.753 53.4833 265.386 50.55C270.519 44.85 273.086 40.95 273.086 38.85C273.086 36.75 271.519 35.7 268.386 35.7C265.853 35.7 264.119 36.6 263.186 38.4C262.519 39.6333 262.053 40.9833 261.786 42.45C261.719 42.5167 261.453 42.55 260.986 42.55C260.553 42.55 259.919 42.4667 259.086 42.3C258.286 42.1333 257.819 41.9833 257.686 41.85C257.553 41.7167 257.486 41.0833 257.486 39.95C257.486 38.7833 257.553 37.2833 257.686 35.45C257.819 33.5833 257.953 32.6 258.086 32.5C258.219 32.3667 258.786 32.1667 259.786 31.9C262.586 31.1333 265.653 30.75 268.986 30.75C272.353 30.75 275.036 31.45 277.036 32.85C279.069 34.2167 280.086 35.9833 280.086 38.15C280.086 40.5167 278.519 43.6667 275.386 47.6C272.919 50.7 270.236 53.8167 267.336 56.95L265.936 58.5C265.836 58.7333 266.786 58.85 268.786 58.85C274.253 58.85 278.086 58.5 280.286 57.8C280.386 57.8 280.436 57.8333 280.436 57.9C280.436 58.7667 280.269 59.8833 279.936 61.25C279.636 62.5833 279.286 63.45 278.886 63.85C278.519 64.2167 276.236 64.4 272.036 64.4ZM308.403 36.45C309.536 38.2167 310.403 40.1333 311.003 42.2C311.603 44.2667 311.903 46.5833 311.903 49.15C311.903 51.6833 311.47 54.0667 310.603 56.3C309.736 58.5 308.586 60.1667 307.153 61.3C304.353 63.5333 301.203 64.65 297.703 64.65C292.936 64.65 289.236 62.9667 286.603 59.6C285.67 58.4333 284.903 56.8833 284.303 54.95C283.736 53.0167 283.453 50.7333 283.453 48.1C283.453 45.4667 283.953 42.8333 284.953 40.2C285.953 37.5333 287.57 35.25 289.803 33.35C292.036 31.45 294.67 30.5 297.703 30.5C300.003 30.5 302.086 31.05 303.953 32.15C305.82 33.25 307.303 34.6833 308.403 36.45ZM292.053 56.8C293.386 58.6333 295.27 59.55 297.703 59.55C300.136 59.55 302.003 58.6333 303.303 56.8C304.636 54.9667 305.303 52.2 305.303 48.5C305.303 44.8 304.57 41.75 303.103 39.35C301.67 36.95 299.87 35.75 297.703 35.75C295.536 35.75 293.72 36.95 292.253 39.35C290.82 41.75 290.103 44.8 290.103 48.5C290.103 52.2 290.753 54.9667 292.053 56.8Z" fill="#45120F"/>
<path d="M327.258 66.05C326.525 66.05 325.925 65.95 325.458 65.75C325.458 60.15 325.942 52.1667 326.908 41.8L327.358 36.65C326.892 36.0833 326.442 35.2167 326.008 34.05C325.608 32.8833 325.408 32.0667 325.408 31.6L325.458 31.45C325.558 31.3167 326.392 31.2 327.958 31.1C329.525 31 331.242 30.95 333.108 30.95C335.008 30.95 336.042 31.0333 336.208 31.2C336.375 31.3667 337.175 33.4667 338.608 37.5C340.042 41.5 341.108 44.6 341.808 46.8C341.875 46.9667 341.958 47.05 342.058 47.05C342.158 47.05 342.325 46.7 342.558 46C342.792 45.2667 343.758 42.7667 345.458 38.5C347.158 34.2 348.292 31.7667 348.858 31.2C349.158 30.9 350.775 30.75 353.708 30.75C356.642 30.75 358.108 30.8333 358.108 31C358.108 31.5667 357.875 32.55 357.408 33.95C356.975 35.35 356.608 36.3333 356.308 36.9C357.475 47.4667 358.058 56.8167 358.058 64.95C358.058 65.2833 357.375 65.5833 356.008 65.85C354.675 66.15 353.575 66.3 352.708 66.3C351.842 66.3 351.408 66.2333 351.408 66.1C351.508 64.7333 351.558 62.5333 351.558 59.5C351.558 56.4333 351.475 52.8 351.308 48.6C351.142 43.3667 350.942 40.75 350.708 40.75L350.408 41.05C349.742 42.2833 348.875 44.3667 347.808 47.3C346.775 50.2333 345.908 52.8667 345.208 55.2L344.158 58.65C343.992 59.0167 343.492 59.2 342.658 59.2C341.858 59.2 341.192 59.15 340.658 59.05C340.158 58.95 339.892 58.85 339.858 58.75C339.758 58.3833 338.725 55.4667 336.758 50C334.792 44.5 333.658 41.5667 333.358 41.2C333.258 41 333.175 40.9 333.108 40.9C333.042 40.9 332.992 41.0167 332.958 41.25C332.358 44.2833 332.058 48.75 332.058 54.65C332.058 60.5167 332.142 63.9167 332.308 64.85C331.475 65.65 329.792 66.05 327.258 66.05ZM382.534 53.6C382.534 56.7667 381.567 59.5167 379.634 61.85C377.734 64.15 375.134 65.3 371.834 65.3C368.567 65.3 366.001 64.2833 364.134 62.25C362.267 60.2167 361.334 57.5833 361.334 54.35C361.334 51.0833 362.484 48.2 364.784 45.7C367.117 43.1667 370.251 41.9 374.184 41.9C375.784 41.9667 376.651 42.0667 376.784 42.2C376.917 42.3333 376.984 42.65 376.984 43.15C376.984 43.65 376.934 44.2 376.834 44.8C377.334 44.8 377.967 45.1 378.734 45.7C379.534 46.2667 380.184 46.85 380.684 47.45C381.184 48.05 381.617 48.9 381.984 50C382.351 51.0667 382.534 52.2667 382.534 53.6ZM375.234 50.1C374.467 49.6 373.717 49.35 372.984 49.35H372.584C372.517 49.2167 372.484 48.9333 372.484 48.5C372.484 48.0667 372.534 47.65 372.634 47.25C371.267 47.25 369.984 47.8667 368.784 49.1C367.617 50.3333 367.034 52.05 367.034 54.25C367.034 56.85 367.867 58.65 369.534 59.65C370.167 60.05 371.034 60.25 372.134 60.25C373.267 60.25 374.317 59.7333 375.284 58.7C376.284 57.6667 376.784 56.1333 376.784 54.1C376.784 52.0667 376.267 50.7333 375.234 50.1ZM386.903 57.8L386.753 46.05C386.753 43.9167 386.836 42.7667 387.003 42.6C387.403 42.2333 388.019 41.9 388.853 41.6C389.686 41.2667 390.486 41.1 391.253 41.1C392.019 41.1 392.403 41.1667 392.403 41.3C392.269 42.7667 392.203 43.8833 392.203 44.65C392.203 45.4167 392.236 45.8 392.303 45.8C392.369 45.8 392.469 45.7333 392.603 45.6C392.736 45.4333 392.969 45.2 393.303 44.9C393.669 44.5667 394.319 44.1333 395.253 43.6C396.219 43.0333 397.103 42.75 397.903 42.75C400.069 42.75 401.703 43.7167 402.803 45.65C404.703 42.9833 406.803 41.65 409.103 41.65C411.169 41.65 412.653 42.5333 413.553 44.3C414.486 46.2667 415.036 48.2333 415.203 50.2C415.403 53.0667 415.503 56.0333 415.503 59.1L415.303 64.95C415.303 65.1833 414.753 65.4 413.653 65.6C412.553 65.8333 411.669 65.95 411.003 65.95L409.403 65.7C409.769 62.4 409.953 59.7333 409.953 57.7C409.953 55.6667 409.919 54.2167 409.853 53.35C409.819 52.45 409.703 51.5667 409.503 50.7C409.303 49.8 408.986 49.1667 408.553 48.8C408.153 48.4 407.636 48.2 407.003 48.2C406.369 48.2 405.803 48.3833 405.303 48.75C404.803 49.0833 404.436 49.4167 404.203 49.75C404.003 50.0833 403.903 50.3 403.903 50.4C404.003 51.4667 404.053 53.9333 404.053 57.8L403.853 61.75C403.853 62.0167 403.319 62.25 402.253 62.45C401.186 62.65 400.319 62.75 399.653 62.75L398.053 62.5C398.353 59.8 398.503 57.2833 398.503 54.95C398.503 52.5833 398.369 50.9333 398.103 50C397.869 49.0333 397.219 48.55 396.153 48.55C395.086 48.55 394.186 49.0833 393.453 50.15C392.719 51.2167 392.353 52.0333 392.353 52.6V53.65L392.403 58.95C392.403 62.2167 392.336 63.9333 392.203 64.1C391.369 64.9 389.619 65.3 386.953 65.3C386.686 65.3 386.553 65.25 386.553 65.15C386.786 63.7167 386.903 61.2667 386.903 57.8ZM431.55 48.1C431.55 47.1333 431.033 46.65 430 46.65C428.633 46.65 427.433 47.35 426.4 48.75C425.367 50.15 424.85 51.8333 424.85 53.8C424.85 54.2667 424.917 54.5 425.05 54.5C426.25 54.4667 427.633 53.7833 429.2 52.45C430.767 51.0833 431.55 49.6333 431.55 48.1ZM435.9 64C434.767 64.7667 432.55 65.15 429.25 65.15C425.95 65.15 423.417 64.1667 421.65 62.2C419.883 60.2333 419 57.6167 419 54.35C419 51.05 420.05 48.2 422.15 45.8C424.283 43.3667 427.267 42.15 431.1 42.15C432.667 42.15 434.1 42.5667 435.4 43.4C436.733 44.2333 437.4 45.7 437.4 47.8C437.4 49.8667 436.483 51.9167 434.65 53.95C432.85 55.9833 430.383 57.5333 427.25 58.6C427.25 59 427.65 59.3333 428.45 59.6C429.283 59.8333 430.1 59.95 430.9 59.95C433.433 59.95 435.433 59.5 436.9 58.6C436.933 58.5667 436.983 58.55 437.05 58.55C437.117 58.55 437.15 58.8667 437.15 59.5C437.15 61.4333 436.733 62.9333 435.9 64ZM447.193 52.75L447.243 54.6V58.4C447.243 61.9667 447.176 63.8167 447.043 63.95C446.609 64.3833 445.859 64.7167 444.793 64.95C443.726 65.1833 442.843 65.3 442.143 65.3C441.476 65.3 441.143 65.25 441.143 65.15C441.376 63.65 441.493 61.1833 441.493 57.75L441.343 46.5C441.343 44.4333 441.426 43.3167 441.593 43.15C441.959 42.7833 442.593 42.4667 443.493 42.2C444.393 41.9 445.226 41.75 445.993 41.75C446.793 41.75 447.193 41.8333 447.193 42C447.093 42.8 447.043 43.6 447.043 44.4C447.043 45.2 447.093 45.6 447.193 45.6L447.343 45.5C447.509 45.2667 447.759 44.9833 448.093 44.65C448.426 44.2833 449.126 43.8167 450.193 43.25C451.293 42.65 452.326 42.35 453.293 42.35C454.293 42.35 455.126 42.5333 455.793 42.9C456.493 43.2333 457.059 43.65 457.493 44.15C457.926 44.65 458.293 45.3667 458.593 46.3C458.926 47.2333 459.176 48.1 459.343 48.9C459.509 49.7 459.643 50.7667 459.743 52.1C459.843 53.9333 459.893 56.2667 459.893 59.1L459.743 64.95C459.743 65.1833 459.193 65.4 458.093 65.6C456.993 65.8333 456.109 65.95 455.443 65.95L453.793 65.7C454.126 62.7 454.293 59.8 454.293 57C454.293 54.1667 454.109 52.05 453.743 50.65C453.376 49.2167 452.643 48.5 451.543 48.5C450.443 48.5 449.543 48.8 448.843 49.4C448.176 50 447.743 50.6 447.543 51.2L447.193 52.05V52.75ZM470.735 31.25C470.668 32.0167 470.585 34.1167 470.485 37.55C472.985 37.55 474.235 37.6 474.235 37.7C474.235 38.8333 474.068 39.85 473.735 40.75C473.401 41.6167 473.085 42.05 472.785 42.05H470.435C470.368 46.9833 470.335 51 470.335 54.1C470.335 57.1667 470.385 59.2167 470.485 60.25C470.685 61.9833 471.368 63.4 472.535 64.5C472.535 64.8667 471.885 65.4 470.585 66.1C469.318 66.8 468.118 67.15 466.985 67.15C466.885 67.15 466.685 66.9833 466.385 66.65C466.118 66.3167 465.818 65.7667 465.485 65C465.185 64.2333 464.985 63.4833 464.885 62.75C464.818 62.0167 464.785 59.4 464.785 54.9C464.785 50.4 464.835 46.15 464.935 42.15L462.135 42.2C461.968 42.0333 461.885 41.3167 461.885 40.05C461.885 38.75 462.035 37.9667 462.335 37.7C463.068 37.6667 463.951 37.6333 464.985 37.6C464.985 35.6667 464.935 34.4167 464.835 33.85C464.735 33.2833 464.685 32.95 464.685 32.85C464.685 32.5167 465.251 32.1333 466.385 31.7C467.551 31.2667 468.568 31.05 469.435 31.05C470.301 31.05 470.735 31.1167 470.735 31.25ZM489.958 58.25C489.958 60.05 489.108 61.6667 487.408 63.1C485.742 64.5 483.925 65.5 481.958 66.1C480.025 66.7333 478.325 67.05 476.858 67.05C476.692 67.05 476.458 66.85 476.158 66.45C475.325 65.35 474.908 64.0667 474.908 62.6V62.25C477.508 62.25 479.492 61.8 480.858 60.9C482.225 60 482.908 59.0667 482.908 58.1C482.908 57.4667 482.492 56.8 481.658 56.1C480.825 55.4 479.908 54.7833 478.908 54.25C477.908 53.7167 476.992 53.0167 476.158 52.15C475.325 51.25 474.908 50.3167 474.908 49.35C474.908 47.3167 476.175 45.45 478.708 43.75C481.242 42.05 483.942 41.2 486.808 41.2C487.142 41.2 487.575 41.6667 488.108 42.6C488.642 43.5 488.925 44.4333 488.958 45.4C488.292 45.4 487.292 45.6 485.958 46C483.325 46.8333 482.008 47.8667 482.008 49.1C482.008 49.9667 483.308 51.15 485.908 52.65C486.908 53.2167 487.825 54 488.658 55C489.492 56 489.925 57.0833 489.958 58.25Z" fill="#B11F24"/>
<path d="M50 100C77.6142 100 100 77.6142 100 50C100 22.3858 77.6142 0 50 0C22.3858 0 0 22.3858 0 50C0 77.6142 22.3858 100 50 100Z" fill="#B11F24" fill-opacity="0.8"/>
<path d="M77.9795 6.25H22.0201C17.7021 6.25 14.2021 9.75078 14.2021 14.068V83.5938C14.2021 89.2031 18.749 93.75 24.3584 93.75H77.9803C82.2982 93.75 85.7982 90.2492 85.7982 85.932V14.0687C85.7982 9.75078 82.2975 6.25 77.9795 6.25Z" fill="#F49C00"/>
<path d="M77.9781 93.7141H24.1445V78.1516H77.9773C82.3055 78.1516 85.7898 74.6516 85.7898 70.3391V85.8859C85.7906 90.2141 82.2906 93.7141 77.9781 93.7141Z" fill="#B11F24"/>
<path d="M22.0201 6.25C17.7021 6.25 14.2021 9.75078 14.2021 14.068V83.5938C14.2021 89.2031 18.749 93.75 24.3584 93.75H26.8732V6.25H22.0201Z" fill="#B11F24"/>
<path d="M29.6332 6.25H26.873V93.6797H29.6332V6.25Z" fill="white"/>
<path d="M77.9816 78.1563H23.4887C20.2621 78.1563 17.6465 80.7719 17.6465 83.9984C17.6465 87.225 20.2621 89.8406 23.4887 89.8406H77.9777C82.2988 89.8406 85.7957 86.3391 85.7957 82.0227V70.3383C85.7957 74.6547 82.2988 78.1563 77.9816 78.1563Z" fill="white"/>
<path d="M85.7951 74.2047V78.1141C85.7951 82.4313 82.2982 85.9321 77.9771 85.9321H17.9717C17.5396 84.7047 17.5256 83.3141 17.9889 82.0227H77.9818C82.2982 82.0227 85.7951 78.5219 85.7951 74.2047Z" fill="#DFDFDF"/>
<path d="M79.6934 39.8984H35.7402V65.6625H79.6934V39.8984Z" fill="#FDFEFF"/>
<path d="M76.5996 44.8126H38.834V46.6438H76.5996V44.8126Z" fill="#E8E7E8"/>
<path d="M76.5996 51.8672H38.834V53.6985H76.5996V51.8672Z" fill="#E8E7E8"/>
<path d="M76.5996 58.9142H38.834V60.7454H76.5996V58.9142Z" fill="#E8E7E8"/>
<path d="M52.0025 46.1461L50.6494 50.5437L54.6025 48.1898L52.0025 46.1461Z" fill="#656D7A"/>
<path d="M54.4883 39.8969L54.0414 40.4656C53.7273 40.8656 53.4891 41.3203 53.3391 41.8063L52.0039 46.1453L54.6039 48.1891L58.5047 45.8664C58.9422 45.6063 59.3273 45.2672 59.6422 44.8672L60.0891 44.2984L54.4883 39.8969Z" fill="#F7CFA3"/>
<path d="M76.2361 19.9148L57.8057 43.3617C57.4002 43.8773 57.4901 44.6234 58.0057 45.0289C58.5213 45.4344 59.2674 45.3445 59.6729 44.8289L78.1026 21.382L76.2361 19.9148Z" fill="#D64331"/>
<path d="M74.3672 18.4476L55.9375 41.8945C55.5321 42.4101 55.6219 43.1562 56.1375 43.5617C56.6531 43.9672 57.3992 43.8773 57.8047 43.3617L76.2344 19.9148L74.3672 18.4476Z" fill="#F1592F"/>
<path d="M72.501 16.9805L54.0713 40.4274C53.6658 40.943 53.7557 41.6891 54.2713 42.0946C54.7869 42.5001 55.533 42.4102 55.9385 41.8946L74.3682 18.4477L72.501 16.9805Z" fill="#D64331"/>
<path d="M79.1494 20.0533L73.5488 15.6508L72.5064 16.9769L78.107 21.3794L79.1494 20.0533Z" fill="#E8BB20"/>
<path d="M81.2582 14.6999L78.2496 12.3351C77.534 11.7726 76.498 11.8968 75.9355 12.6124L73.5449 15.6538L79.1457 20.0562L81.5363 17.0148C82.098 16.2984 81.9738 15.2624 81.2582 14.6999Z" fill="#F5EA07"/>
</svg>
